<svg xmlns="http://www.w3.org/2000/svg" viewBox="0 0 280 280" fill="none">
  <!-- Background circle -->
  <circle cx="140" cy="140" r="140" fill="#fff1f2"/>
  <!-- Head -->
  <circle cx="140" cy="100" r="30" fill="#fecdd3"/>
  <!-- Eyes — confident, slightly narrowed -->
  <ellipse cx="128" cy="96" rx="4.5" ry="4" fill="#1e293b"/>
  <ellipse cx="152" cy="96" rx="4.5" ry="4" fill="#1e293b"/>
  <!-- Confident slight smile -->
  <path d="M130 109 Q140 116 150 109" stroke="#1e293b" stroke-width="2.5" stroke-linecap="round" fill="none"/>
  <!-- Hair — professional, short -->
  <path d="M110 92 Q112 70 140 68 Q168 70 170 92 Q165 80 140 78 Q115 80 110 92Z" fill="#7f1d1d"/>
  <!-- Body / suit jacket -->
  <path d="M100 155 Q110 145 140 145 Q170 145 180 155 L188 200 Q164 210 140 210 Q116 210 92 200 Z" fill="#dc2626"/>
  <!-- Tie -->
  <path d="M136 145 L144 145 L147 170 L140 178 L133 170 Z" fill="#fff"/>
  <!-- Expertise badge / star -->
  <circle cx="200" cy="195" r="28" fill="#b91c1c"/>
  <path d="M200 172 L204 184 H218 L207 193 L211 205 L200 197 L189 205 L193 193 L182 184 H196 Z" fill="#fbbf24"/>
</svg>
